<svg viewBox="0 0 943.55 1137.97" xmlns="http://www.w3.org/2000/svg" id="_레이어_2"><defs><style>.cls-1{fill:#231815;}</style></defs><g id="_레이어_1-2"><polygon points="939.05 494.08 939.05 0 444.97 0 4.75 440.23 4.75 934.3 498.82 934.3 939.05 494.08" class="cls-1"></polygon><path d="m30.84,1080.89h8.86v17.55H0v-17.55h9.65v-47.76H0v-17.54h30.84v65.3Zm-.79-78.91H5.7v-20.4h24.35v20.4Z" class="cls-1"></path><path d="m141.19,1080.89h9.48v17.55h-40v-17.55h9.33v-29.88c0-11.71-3-20.41-16.45-20.41-9.81,0-18.18,7.28-18.18,17.88v32.41h9.17v17.55h-39.85v-17.55h9.49v-47.76h-9.81v-17.54h30.68v9.95s1.43-3.16,5.38-6.48c4.11-3.16,10.59-6.33,20.56-6.33,21.51,0,30.21,14.07,30.21,34.95v33.21Z" class="cls-1"></path><path d="m216.74,1096.38s-7.12,3.01-16.76,3.01c-16.77,0-28.78-6.65-28.78-28.15v-38.12h-12.65v-17.54h12.65v-19.61h21.19v19.61h23.24v17.54h-23.24v36.06c0,10.28,4.74,12.49,12.17,12.49,6.17,0,12.18-2.84,12.18-2.84v17.54Z" class="cls-1"></path><path d="m312.06,1056.85c0,4.43-.31,8.7-.31,8.7h-60.57c2.37,11.39,10.59,16.6,24.35,16.6,19.93,0,30.52-8.38,30.52-8.38v19.76s-11.06,6.8-30.99,6.8c-30.83,0-46.18-18.34-46.18-43.95,0-28.63,19.3-43.65,43.18-43.65,25.77,0,40,16.45,40,44.12Zm-21.35-6.17c-.94-10.59-7.11-19.92-19.45-19.92-11.39,0-19.61,8.06-20.56,19.92h40Z" class="cls-1"></path><path d="m327.52,998.97h-9.81v-15.81h31v87.6c0,7.75,1.89,10.43,9.33,10.43,4.27,0,8.06-.63,8.06-.63v17.07s-6.64,1.11-14.86,1.11c-15.98,0-23.72-6.8-23.72-27.67v-72.11Z" class="cls-1"></path><path d="m379.21,998.97h-9.81v-15.81h31v87.6c0,7.75,1.89,10.43,9.33,10.43,4.27,0,8.06-.63,8.06-.63v17.07s-6.64,1.11-14.86,1.11c-15.98,0-23.72-6.8-23.72-27.67v-72.11Z" class="cls-1"></path><path d="m459.68,1080.89h8.86v17.55h-39.7v-17.55h9.65v-47.76h-9.65v-17.54h30.84v65.3Zm-.79-78.91h-24.35v-20.4h24.35v20.4Z" class="cls-1"></path><path d="m547.58,1032.66s2.69,5.06,2.69,11.54c0,17.08-15.49,29.73-35.74,29.73h-.47l.16,10.28s6.64-1.75,14.54-1.75c21.35,0,34,9.49,34,26.89,0,14.86-13.44,28.62-46.65,28.62-17.71,0-35.42-6.95-35.42-6.95v-18.66s15.18,8.06,35.27,8.06c18.66,0,25.94-4.74,25.94-10.59s-5.06-9.96-22.46-9.96c-5.22,0-11.7.64-16.76,1.11-4.9.64-8.7,1.27-8.7,1.27l2.05-32.26c-10.59-5.22-17.54-14.7-17.54-26.88,0-18.18,15.81-30.83,35.89-30.83,9.81,0,16.76,3.32,16.76,3.32h29.25v17.71l-12.81-.64Zm-49.5,10.43c0,8.7,7.12,14.87,16.45,14.87s16.45-6.17,16.45-14.87-7.12-14.86-16.45-14.86-16.45,6.16-16.45,14.86Z" class="cls-1"></path><path d="m653.81,1056.85c0,4.43-.31,8.7-.31,8.7h-60.57c2.37,11.39,10.59,16.6,24.35,16.6,19.93,0,30.52-8.38,30.52-8.38v19.76s-11.06,6.8-30.99,6.8c-30.84,0-46.18-18.34-46.18-43.95,0-28.63,19.3-43.65,43.17-43.65,25.78,0,40.01,16.45,40.01,44.12Zm-21.35-6.17c-.95-10.59-7.11-19.92-19.45-19.92-11.39,0-19.61,8.06-20.56,19.92h40Z" class="cls-1"></path><path d="m754.03,1080.89h9.48v17.55h-40v-17.55h9.33v-29.88c0-11.71-3-20.41-16.45-20.41-9.81,0-18.18,7.28-18.18,17.88v32.41h9.17v17.55h-39.85v-17.55h9.49v-47.76h-9.81v-17.54h30.68v9.95s1.43-3.16,5.38-6.48c4.11-3.16,10.59-6.33,20.56-6.33,21.51,0,30.21,14.07,30.21,34.95v33.21Z" class="cls-1"></path><path d="m847.44,1094.8s-9.17,5.7-26.41,5.7c-26.41,0-46.49-15.98-46.49-43.96,0-25.14,18.03-43.81,46.97-43.81,15.97,0,25.93,6.33,25.93,6.33v20.24s-8.22-8.06-25.77-8.06c-14.24,0-25.3,9.01-25.3,25.14s11.39,25.62,25.46,25.62c17.23,0,25.62-7.43,25.62-7.43v20.24Z" class="cls-1"></path><path d="m943.55,1056.85c0,4.43-.31,8.7-.31,8.7h-60.57c2.37,11.39,10.59,16.6,24.35,16.6,19.93,0,30.52-8.38,30.52-8.38v19.76s-11.06,6.8-30.99,6.8c-30.83,0-46.18-18.34-46.18-43.95,0-28.63,19.3-43.65,43.18-43.65,25.77,0,40,16.45,40,44.12Zm-21.35-6.17c-.94-10.59-7.11-19.92-19.45-19.92-11.39,0-19.61,8.06-20.56,19.92h40Z" class="cls-1"></path><path d="m710.19,933.36v-27.84h13.58v-102.32h-13.58v-27.84c25.35,0,39.6-.45,74.7-.45,53.42,0,85.79,26.7,85.79,77.86s-30.34,81.04-88.51,81.04c-35.08,0-46.62-.45-71.97-.45Zm44.59-27.84s16.52.45,29.65.45c36.22,0,53.65-20.83,53.65-52.29s-18.11-50.93-53.65-50.93c-13.13,0-29.65.45-29.65.45v102.32Z" class="cls-1"></path><circle r="20.44" cy="914.79" cx="917.94" class="cls-1"></circle></g></svg>